<?xml version="1.0" encoding="UTF-8"?><svg id="Layer_2" xmlns="http://www.w3.org/2000/svg" viewBox="0 0 347.11 85.04"><defs><style>.cls-1{fill:#fff;}.cls-2{fill:#e5b200;}</style></defs><g id="Layer_1-2"><g><path class="cls-1" d="M106.7,68.18c0,.14,.12,.26,.26,.26h9.8c.14,0,.26-.12,.26-.26v-22.93h27.4v22.93c0,.14,.12,.26,.26,.26h9.8c.14,0,.26-.12,.26-.26V13.12c0-.14-.12-.26-.26-.26h-9.8c-.14,0-.26,.12-.26,.26v22.61h-27.4V13.12c0-.14-.12-.26-.26-.26h-9.8c-.14,0-.26,.12-.26,.26v55.06Z"/><path class="cls-1" d="M185.07,69.39c13.66,0,21.76-10.01,21.76-20.72s-8.1-20.8-21.76-20.8-21.76,10.01-21.76,20.8,8.1,20.72,21.76,20.72Zm0-33.19c7.7,0,11.99,6.03,11.99,12.47s-4.29,12.39-11.99,12.39-11.99-5.96-11.99-12.39,4.29-12.47,11.99-12.47Z"/><path class="cls-1" d="M225.33,46.29c0-5.72,3.73-9.69,9.21-9.69,5.96,0,8.5,4.13,8.5,9.77v21.82c0,.14,.12,.26,.26,.26h9.49c.14,0,.26-.12,.26-.26v-23.48c0-9.85-5.32-16.83-14.85-16.83-6.19,0-11.35,3.1-13.18,7.7v-6.49c0-.14-.12-.26-.26-.26h-9.17c-.14,0-.26,.12-.26,.26v39.1c0,.14,.12,.26,.26,.26h9.49c.14,0,.26-.12,.26-.26v-21.89Z"/><path class="cls-1" d="M302.6,52c.14,0,.26-.12,.26-.26v-3c0-12.23-8.34-20.88-20.8-20.88s-20.89,8.73-20.89,20.73,7.86,20.8,21.36,20.8c9.29,0,16.82-5.3,19.64-12.2,.07-.17-.06-.35-.24-.35h-8.77c-.09,0-.17,.05-.22,.12-1.93,2.95-5.63,5.04-10.41,5.04-7.07,0-10.88-4.05-11.51-10.01h31.58Zm-20.39-16.99c6.43,0,10.48,4.29,11.12,10.4h-22.39c.79-6.43,5.08-10.4,11.28-10.4Z"/><path class="cls-1" d="M326.51,57.09l-10.42-28.1c-.04-.1-.14-.17-.25-.17h-9.76c-.18,0-.31,.19-.24,.36l15.5,37.76-7.08,17.75c-.07,.17,.06,.36,.24,.36h9.84c.11,0,.2-.07,.24-.17l6.53-16.83,15.97-38.87c.07-.17-.06-.36-.24-.36h-9.83c-.11,0-.21,.07-.24,.17l-10.26,28.1Z"/><path class="cls-1" d="M71.06,31.21c.06-.03,.13-.06,.22-.08v26.43c0,2.04-1.09,3.93-2.86,4.95l-29.93,17.28c-1.77,1.02-3.95,1.02-5.72,0L2.86,62.5c-1.77-1.02-2.86-2.91-2.86-4.95v-16.45c.46,.18,1.19,.77,2.29,2.76,.58,1.06,1.1,2.15,1.63,3.23,.57,1.16,1.25,2.49,2.05,3.71,1.61,2.45,4.35,5.36,8.9,5.36,5.08,0,7.79-3.97,9.21-6.85,1.61-3.25,2.56-6.76,3.7-10.18,1.17-3.51,2.31-6.39,3.78-8.38,.68-.92,1.34-1.55,2.05-1.95,.7-.4,1.48-.61,2.44-.61,2.6,0,4.2,.75,5.39,1.71,1.32,1.08,2.39,2.63,3.55,4.7,1.24,2.2,2.32,4.51,3.87,6.52,1.74,2.25,4.38,4.45,8.39,4.45,4.34,0,6.9-2.75,8.38-5.08,1.29-2.04,2.12-4.31,3.22-6.45,.98-1.9,1.67-2.58,2.21-2.83Z"/><path class="cls-2" d="M71.29,23v2.55c-2.27,.19-3.94,1.26-5.23,2.73-1.41,1.61-2.38,3.74-3.25,5.64l-.03,.08c-.8,1.75-1.51,3.29-2.4,4.41-.86,1.07-1.81,1.66-3.11,1.66-1.46,0-2.55-.63-3.56-1.75-1.05-1.17-1.93-2.79-2.94-4.67l-.03-.06c-1.28-2.37-2.75-5.1-4.96-7.21-2.29-2.18-5.33-3.68-9.69-3.68s-7.46,2.44-9.58,5.74c-2.08,3.22-3.43,7.39-4.65,11.17l-.03,.08c-1.01,3.12-1.92,5.93-3.08,7.98-1.15,2.05-2.36,3.01-3.86,3.01s-2.56-.68-3.56-1.88c-1.04-1.25-1.87-2.94-2.79-4.82l-.04-.08c-.95-1.95-2-4.1-3.43-5.7-1.28-1.44-2.91-2.49-5.06-2.66v-12.51c0-2.04,1.09-3.93,2.86-4.95L32.79,.77c1.77-1.02,3.95-1.02,5.72,0l29.93,17.28c1.77,1.02,2.86,2.91,2.86,4.95Z"/></g></g></svg>